# xmcd
#
# Track frame offsets: 
#        150
#        17345
#        31457
#        44377
#        59984
#        76345
#        93878
#        114201
#        129000
#        149115
#        166002
#        181382
#        198271
#        214883
#        233781
#        252182
#
# Disc length: 3731 seconds
#
# Revision: 0
# Processed by: cddbd v1.5.2PL0 Copyright (c) Steve Scherf et al.
# Submitted via: ExactAudioCopyFreeDBPlugin 1.0
#
DISCID=d30e9110
DTITLE=Kimberly Dunn - So Good
DYEAR=2014
DGENRE=Americana
TTITLE0=So Good
TTITLE1=Forever on the Run 
TTITLE2=Trashy Side
TTITLE3=Bones
TTITLE4=Sealed with a Kiss
TTITLE5=Promised Me
TTITLE6=Dream Girl
TTITLE7=When Did We Stop
TTITLE8=The Road
TTITLE9=Common as the Rain
TTITLE10=Tank of Gas
TTITLE11=Long Ride
TTITLE12=I Don't Want You to Go
TTITLE13=Randy Rogers
TTITLE14=I'd Rather
TTITLE15=Heart of Stone
EXTD=
EXTT0=
EXTT1=
EXTT2=
EXTT3=
EXTT4=
EXTT5=
EXTT6=
EXTT7=
EXTT8=
EXTT9=
EXTT10=
EXTT11=
EXTT12=
EXTT13=
EXTT14=
EXTT15=
PLAYORDER=
